<svg width="132" height="98" viewBox="0 0 132 98" fill="none" xmlns="http://www.w3.org/2000/svg">
<g clip-path="url(#clip0_911_38249)">
<path d="M82.806 9.62588C79.7262 11.7802 78.2243 12.8345 73.9868 12.8345C69.7495 12.8345 67.0573 9.92748 68.2375 4.21226L65.9985 0L63.7596 4.21226C64.9398 9.92748 62.141 12.8345 58.0101 12.8345C53.8791 12.8345 52.2709 11.7802 49.191 9.62588C44.698 11.0072 38.6775 10.9996 32.9736 8.3916C34.3035 22.3591 43.1275 29.0271 62.9668 25.3244C59.0815 29.4428 56.9362 33.8351 56.3587 37.5911C58.8561 39.35 62.2778 41.109 65.9985 41.109C69.7191 41.109 73.1409 39.35 75.6382 37.5911C75.0607 33.8351 72.9154 29.4453 69.0303 25.3244C88.8719 29.0271 97.6936 22.3591 99.0233 8.3916C93.3195 10.9996 87.2991 11.0072 82.806 9.62588Z" fill="#975497"/>
<path d="M16.9237 68.6098H12.9953L4.19395 55.2304V68.6098H0.265625V48.9297H4.19395L12.9953 62.4207V48.9297H16.9237V68.6098Z" fill="white"/>
<path d="M31.2011 53.9205C32.3989 54.5517 33.3412 55.4666 34.0276 56.6654C34.7139 57.8642 35.0584 59.2709 35.0584 60.8878C35.0584 62.5048 34.7139 63.9088 34.0276 65.0975C33.3412 66.2861 32.3989 67.201 31.2011 67.8423C30.003 68.4836 28.6531 68.8029 27.1485 68.8029C25.6441 68.8029 24.2942 68.4836 23.0961 67.8423C21.8981 67.201 20.956 66.2861 20.2695 65.0975C19.5833 63.9088 19.2388 62.5048 19.2388 60.8878C19.2388 59.2709 19.5833 57.8642 20.2695 56.6654C20.956 55.4666 21.8981 54.5517 23.0961 53.9205C24.2942 53.2894 25.6441 52.9727 27.1485 52.9727C28.6531 52.9727 30.003 53.2894 31.2011 53.9205ZM24.3625 57.5297C23.6002 58.3 23.2203 59.4204 23.2203 60.8878C23.2203 62.3553 23.6002 63.4755 24.3625 64.2459C25.1249 65.0164 26.0518 65.4017 27.1485 65.4017C28.2452 65.4017 29.1723 65.0164 29.9347 64.2459C30.697 63.4755 31.0769 62.3553 31.0769 60.8878C31.0769 59.4204 30.697 58.3 29.9347 57.5297C29.1723 56.7591 28.2452 56.374 27.1485 56.374C26.0518 56.374 25.1249 56.7591 24.3625 57.5297Z" fill="white"/>
<path d="M43.3854 53.7944C44.3327 53.2266 45.3914 52.9453 46.5616 52.9453V57.1551H45.4193C42.5395 57.1551 41.1009 58.4933 41.1009 61.1696V68.6108H37.1726V53.1683H41.1009V56.1235C41.6758 55.1376 42.4382 54.3621 43.3854 53.7969V53.7944Z" fill="white"/>
<path d="M56.8475 65.2369V68.6102H54.786C53.0586 68.6102 51.7364 68.192 50.8171 67.3556C49.8977 66.5193 49.4392 65.1253 49.4392 63.1738V56.4827H47.2939V53.1652H49.4392V49.3457H53.3676V53.1652H56.8223V56.4827H53.3676V63.227C53.3676 63.9696 53.5171 64.4917 53.8133 64.7882C54.1097 65.0848 54.6111 65.2342 55.3179 65.2342H56.8502L56.8475 65.2369Z" fill="white"/>
<path d="M72.5099 54.7007C73.5685 55.8716 74.0979 57.5164 74.0979 59.6353V68.6097H70.1974V60.0814C70.1974 58.8546 69.8809 57.9017 69.2502 57.2249C68.6195 56.5457 67.7559 56.2086 66.6593 56.2086C65.5624 56.2086 64.6533 56.5712 63.9846 57.2959C63.316 58.0208 62.9816 59.0624 62.9816 60.4184V68.6124H59.0532V47.9844H62.9816V56.2619C63.3894 55.2203 64.0632 54.4091 65.0003 53.8238C65.9373 53.2383 67.0214 52.9469 68.2447 52.9469C70.0277 52.9469 71.4487 53.5322 72.5073 54.7032L72.5099 54.7007Z" fill="white"/>
<path d="M81.0439 65.5989H87.6468V68.6098H77.1182V48.9297H81.0464V65.5989H81.0439Z" fill="#975497"/>
<path d="M98.4211 53.8927C99.3507 54.506 100.009 55.3322 100.399 56.374V53.1678H104.3V68.6104H100.399V65.3762C100.009 66.418 99.3507 67.2493 98.4211 67.8701C97.4917 68.4936 96.3772 68.8029 95.0779 68.8029C93.7786 68.8029 92.6084 68.4861 91.5675 67.855C90.5265 67.2239 89.7161 66.309 89.131 65.1101C88.5459 63.9115 88.2546 62.5048 88.2546 60.8878C88.2546 59.2709 88.5484 57.8642 89.131 56.6654C89.7161 55.4666 90.529 54.5517 91.5675 53.9205C92.6084 53.2894 93.7762 52.9727 95.0779 52.9727C96.3797 52.9727 97.4917 53.2794 98.4211 53.8927ZM93.3506 57.6006C92.6084 58.3989 92.2361 59.4963 92.2361 60.8903C92.2361 62.2843 92.6084 63.3766 93.3506 64.1648C94.0927 64.9556 95.0779 65.3484 96.3038 65.3484C97.5297 65.3484 98.4719 64.9454 99.2417 64.1369C100.012 63.3285 100.397 62.2462 100.397 60.8903C100.397 59.5343 100.012 58.4242 99.2417 57.6158C98.4719 56.8073 97.4917 56.4043 96.3038 56.4043C95.116 56.4043 94.0927 56.8048 93.3506 57.6031V57.6006Z" fill="#975497"/>
<path d="M113.418 53.7944C114.365 53.2266 115.423 52.9453 116.594 52.9453V57.1551H115.451C112.571 57.1551 111.133 58.4933 111.133 61.1696V68.6108H107.205V53.1683H111.133V56.1235C111.708 55.1376 112.47 54.3621 113.418 53.7969V53.7944Z" fill="#975497"/>
<path d="M126.942 68.6104L121.844 61.8663V68.6104H117.916V47.9824H121.844V59.5777L126.914 53.1679H131.567L125.076 60.8601L131.734 68.6079H126.942V68.6104Z" fill="#975497"/>
</g>
<path d="M28.9417 87.9381C28.9417 87.0715 29.1353 86.2974 29.5223 85.6159C29.9178 84.9259 30.452 84.3916 31.1252 84.013C31.8067 83.626 32.5682 83.4324 33.4096 83.4324C34.394 83.4324 35.2564 83.6849 35.9969 84.1897C36.7373 84.6945 37.2548 85.3929 37.5492 86.2848H35.5173C35.3153 85.8641 35.0293 85.5486 34.659 85.3382C34.2972 85.1279 33.8765 85.0227 33.3969 85.0227C32.8837 85.0227 32.4251 85.1447 32.0213 85.3887C31.6258 85.6243 31.3145 85.9608 31.0873 86.3984C30.8685 86.8359 30.7592 87.3491 30.7592 87.9381C30.7592 88.5187 30.8685 89.0319 31.0873 89.4779C31.3145 89.9154 31.6258 90.2562 32.0213 90.5002C32.4251 90.7358 32.8837 90.8536 33.3969 90.8536C33.8765 90.8536 34.2972 90.7484 34.659 90.538C35.0293 90.3193 35.3153 89.9996 35.5173 89.5789H37.5492C37.2548 90.4791 36.7373 91.1817 35.9969 91.6866C35.2648 92.183 34.4024 92.4312 33.4096 92.4312C32.5682 92.4312 31.8067 92.2419 31.1252 91.8633C30.452 91.4762 29.9178 90.9419 29.5223 90.2604C29.1353 89.5789 28.9417 88.8048 28.9417 87.9381ZM44.0311 92.4438C43.2065 92.4438 42.4493 92.2503 41.7593 91.8633C41.0694 91.4762 40.5225 90.9419 40.1186 90.2604C39.7147 89.5704 39.5128 88.7921 39.5128 87.9255C39.5128 87.0673 39.7147 86.2974 40.1186 85.6159C40.5225 84.9259 41.0694 84.3874 41.7593 84.0004C42.4493 83.6133 43.2065 83.4198 44.0311 83.4198C44.8641 83.4198 45.6213 83.6133 46.3029 84.0004C46.9928 84.3874 47.5355 84.9259 47.931 85.6159C48.3349 86.2974 48.5368 87.0673 48.5368 87.9255C48.5368 88.7921 48.3349 89.5704 47.931 90.2604C47.5355 90.9419 46.9928 91.4762 46.3029 91.8633C45.6129 92.2503 44.8557 92.4438 44.0311 92.4438ZM44.0311 90.8662C44.5612 90.8662 45.0282 90.7484 45.432 90.5128C45.8359 90.2688 46.1514 89.9238 46.3786 89.4779C46.6058 89.0319 46.7194 88.5145 46.7194 87.9255C46.7194 87.3365 46.6058 86.8233 46.3786 86.3857C46.1514 85.9398 45.8359 85.599 45.432 85.3634C45.0282 85.1279 44.5612 85.0101 44.0311 85.0101C43.501 85.0101 43.0298 85.1279 42.6176 85.3634C42.2137 85.599 41.8982 85.9398 41.671 86.3857C41.4438 86.8233 41.3302 87.3365 41.3302 87.9255C41.3302 88.5145 41.4438 89.0319 41.671 89.4779C41.8982 89.9238 42.2137 90.2688 42.6176 90.5128C43.0298 90.7484 43.501 90.8662 44.0311 90.8662ZM58.2695 92.3555H56.5026L52.5018 86.31V92.3555H50.7348V83.5334H52.5018L56.5026 89.5915V83.5334H58.2695V92.3555ZM63.9408 92.4438C63.3266 92.4438 62.7713 92.3386 62.2748 92.1283C61.7868 91.9179 61.3998 91.615 61.1137 91.2196C60.8276 90.8241 60.6804 90.3571 60.672 89.8187H62.5651C62.5904 90.1805 62.7166 90.4665 62.9437 90.6769C63.1793 90.8872 63.4991 90.9924 63.9029 90.9924C64.3152 90.9924 64.6392 90.8956 64.8747 90.7021C65.1103 90.5002 65.2281 90.2394 65.2281 89.9196C65.2281 89.6588 65.1482 89.4442 64.9883 89.2759C64.8285 89.1077 64.6265 88.9773 64.3825 88.8847C64.1469 88.7837 63.8188 88.6743 63.3981 88.5566C62.8259 88.3883 62.359 88.2242 61.9972 88.0643C61.6438 87.8961 61.3367 87.6478 61.0758 87.3197C60.8234 86.9831 60.6972 86.5372 60.6972 85.9819C60.6972 85.4602 60.8276 85.0059 61.0885 84.6188C61.3493 84.2318 61.7153 83.9373 62.1865 83.7353C62.6577 83.525 63.1962 83.4198 63.802 83.4198C64.7107 83.4198 65.4469 83.6428 66.0106 84.0887C66.5828 84.5263 66.8983 85.1405 66.9572 85.9314H65.0136C64.9968 85.6285 64.8663 85.3803 64.6223 85.1868C64.3867 84.9848 64.0712 84.8838 63.6758 84.8838C63.3308 84.8838 63.0531 84.9722 62.8428 85.1489C62.6408 85.3256 62.5399 85.5822 62.5399 85.9188C62.5399 86.1544 62.6156 86.3521 62.767 86.512C62.9269 86.6634 63.1204 86.7896 63.3476 86.8906C63.5832 86.9831 63.9113 87.0925 64.332 87.2187C64.9042 87.387 65.3712 87.5553 65.733 87.7236C66.0948 87.8918 66.4061 88.1443 66.6669 88.4808C66.9278 88.8174 67.0582 89.2591 67.0582 89.806C67.0582 90.2772 66.9362 90.7147 66.6922 91.1186C66.4482 91.5225 66.0906 91.8464 65.6194 92.0904C65.1482 92.326 64.5887 92.4438 63.9408 92.4438ZM71.2152 83.546V88.9983C71.2152 89.5957 71.3709 90.0542 71.6822 90.374C71.9935 90.6853 72.431 90.841 72.9948 90.841C73.5669 90.841 74.0087 90.6853 74.32 90.374C74.6313 90.0542 74.7869 89.5957 74.7869 88.9983V83.546H76.5665V88.9857C76.5665 89.7345 76.4024 90.3698 76.0743 90.8914C75.7546 91.4047 75.3212 91.7917 74.7743 92.0526C74.2358 92.3134 73.6342 92.4438 72.9695 92.4438C72.3132 92.4438 71.7158 92.3134 71.1773 92.0526C70.6473 91.7917 70.2266 91.4047 69.9153 90.8914C69.6039 90.3698 69.4483 89.7345 69.4483 88.9857V83.546H71.2152ZM80.9241 90.9545H83.8269V92.3555H79.1572V83.546H80.9241V90.9545ZM91.2352 90.6769H87.7266L87.146 92.3555H85.2908L88.4586 83.5334H90.5158L93.6837 92.3555H91.8158L91.2352 90.6769ZM90.7556 89.2633L89.4809 85.578L88.2062 89.2633H90.7556ZM100.295 92.3555L98.3512 88.9226H97.5182V92.3555H95.7513V83.546H99.058C99.7395 83.546 100.32 83.668 100.8 83.912C101.279 84.1476 101.637 84.4716 101.872 84.8838C102.116 85.2877 102.238 85.7421 102.238 86.2469C102.238 86.8275 102.07 87.3534 101.734 87.8245C101.397 88.2873 100.896 88.607 100.232 88.7837L102.339 92.3555H100.295ZM97.5182 87.5974H98.9949C99.4745 87.5974 99.8321 87.4838 100.068 87.2566C100.303 87.021 100.421 86.6971 100.421 86.2848C100.421 85.8809 100.303 85.5696 100.068 85.3508C99.8321 85.1236 99.4745 85.0101 98.9949 85.0101H97.5182V87.5974Z" fill="white"/>
<defs>
<clipPath id="clip0_911_38249">
<rect width="131.469" height="69.9413" fill="white" transform="translate(0.265625)"/>
</clipPath>
</defs>
</svg>
