<svg width="250" height="185" viewBox="0 0 250 185" fill="none" xmlns="http://www.w3.org/2000/svg">
<g clip-path="url(#clip0_525_40151)">
<path d="M156.959 18.3045C151.102 22.4011 148.246 24.406 140.188 24.406C132.131 24.406 127.011 18.8781 129.255 8.01002L124.998 0L120.74 8.01002C122.984 18.8781 117.662 24.406 109.807 24.406C101.952 24.406 98.8933 22.4011 93.0367 18.3045C84.4927 20.9312 73.0443 20.9167 62.1978 15.9574C64.7266 42.5179 81.5063 55.1979 119.233 48.1568C111.844 55.9883 107.765 64.3407 106.667 71.4831C111.416 74.8277 117.922 78.1727 124.998 78.1727C132.073 78.1727 138.58 74.8277 143.328 71.4831C142.23 64.3407 138.151 55.993 130.763 48.1568C168.494 55.1979 185.269 42.5179 187.797 15.9574C176.951 20.9167 165.503 20.9312 156.959 18.3045Z" fill="#975497"/>
<path d="M31.6769 130.469H24.2067L7.4701 105.027V130.469H0V93.0454H7.4701L24.2067 118.7V93.0454H31.6769V130.469Z" fill="#564687"/>
<path d="M58.8263 102.535C61.1041 103.735 62.8959 105.475 64.2013 107.755C65.5063 110.034 66.1614 112.709 66.1614 115.784C66.1614 118.859 65.5063 121.529 64.2013 123.789C62.8959 126.05 61.1041 127.789 58.8263 129.009C56.5481 130.228 53.981 130.835 51.1199 130.835C48.2592 130.835 45.6921 130.228 43.4139 129.009C41.1358 127.789 39.3443 126.05 38.0389 123.789C36.7339 121.529 36.0788 118.859 36.0788 115.784C36.0788 112.709 36.7339 110.034 38.0389 107.755C39.3443 105.475 41.1358 103.735 43.4139 102.535C45.6921 101.335 48.2592 100.733 51.1199 100.733C53.981 100.733 56.5481 101.335 58.8263 102.535ZM45.8222 109.398C44.3725 110.863 43.65 112.994 43.65 115.784C43.65 118.575 44.3725 120.705 45.8222 122.17C47.2718 123.635 49.0345 124.368 51.1199 124.368C53.2054 124.368 54.9684 123.635 56.418 122.17C57.8677 120.705 58.5902 118.575 58.5902 115.784C58.5902 112.994 57.8677 110.863 56.418 109.398C54.9684 107.933 53.2054 107.201 51.1199 107.201C49.0345 107.201 47.2718 107.933 45.8222 109.398Z" fill="#564687"/>
<path d="M81.9978 102.295C83.799 101.215 85.8123 100.68 88.0376 100.68V108.685H85.8655C80.3892 108.685 77.6535 111.23 77.6535 116.319V130.469H70.1835V101.104H77.6535V106.724C78.7468 104.849 80.1965 103.374 81.9978 102.299V102.295Z" fill="#564687"/>
<path d="M107.596 124.054V130.469H103.676C100.391 130.469 97.8766 129.674 96.1285 128.083C94.38 126.493 93.5082 123.842 93.5082 120.131V107.407H89.4288V101.099H93.5082V93.8357H100.978V101.099H107.548V107.407H100.978V120.232C100.978 121.644 101.263 122.637 101.826 123.201C102.39 123.765 103.343 124.049 104.687 124.049H107.601L107.596 124.054Z" fill="#564687"/>
<path d="M137.38 104.02C139.393 106.246 140.4 109.374 140.4 113.403V130.469H132.983V114.252C132.983 111.919 132.381 110.107 131.181 108.82C129.982 107.528 128.34 106.887 126.254 106.887C124.169 106.887 122.44 107.577 121.168 108.955C119.897 110.333 119.261 112.314 119.261 114.893V130.474H111.791V91.248H119.261V106.989C120.036 105.008 121.318 103.465 123.1 102.352C124.882 101.239 126.943 100.685 129.269 100.685C132.66 100.685 135.362 101.798 137.375 104.025L137.38 104.02Z" fill="#564687"/>
<path d="M153.607 124.743H166.163V130.469H146.141V93.0454H153.611V124.743H153.607Z" fill="#975497"/>
<path d="M186.652 102.482C188.419 103.649 189.672 105.22 190.413 107.201V101.104H197.83V130.469H190.413V124.319C189.672 126.3 188.419 127.881 186.652 129.062C184.884 130.247 182.765 130.835 180.294 130.835C177.823 130.835 175.598 130.233 173.619 129.033C171.639 127.833 170.098 126.093 168.985 123.813C167.873 121.534 167.319 118.859 167.319 115.784C167.319 112.709 167.878 110.034 168.985 107.755C170.098 105.475 171.644 103.735 173.619 102.535C175.598 101.335 177.819 100.733 180.294 100.733C182.77 100.733 184.884 101.316 186.652 102.482ZM177.009 109.533C175.598 111.051 174.89 113.138 174.89 115.789C174.89 118.44 175.598 120.517 177.009 122.016C178.421 123.519 180.294 124.266 182.625 124.266C184.956 124.266 186.748 123.5 188.212 121.963C189.676 120.425 190.408 118.367 190.408 115.789C190.408 113.21 189.676 111.099 188.212 109.562C186.748 108.025 184.884 107.258 182.625 107.258C180.366 107.258 178.421 108.02 177.009 109.538V109.533Z" fill="#975497"/>
<path d="M215.169 102.295C216.97 101.215 218.983 100.68 221.209 100.68V108.685H219.036C213.56 108.685 210.825 111.23 210.825 116.319V130.469H203.354V101.104H210.825V106.724C211.918 104.849 213.367 103.374 215.169 102.299V102.295Z" fill="#975497"/>
<path d="M240.888 130.47L231.192 117.645V130.47H223.722V91.2434H231.192V113.293L240.835 101.104H249.682L237.338 115.732L250 130.465H240.888V130.47Z" fill="#975497"/>
</g>
<path d="M54.84 166.6C54.84 164.952 55.208 163.48 55.944 162.184C56.696 160.872 57.712 159.856 58.992 159.136C60.288 158.4 61.736 158.032 63.336 158.032C65.208 158.032 66.848 158.512 68.256 159.472C69.664 160.432 70.648 161.76 71.208 163.456H67.344C66.96 162.656 66.416 162.056 65.712 161.656C65.024 161.256 64.224 161.056 63.312 161.056C62.336 161.056 61.464 161.288 60.696 161.752C59.944 162.2 59.352 162.84 58.92 163.672C58.504 164.504 58.296 165.48 58.296 166.6C58.296 167.704 58.504 168.68 58.92 169.528C59.352 170.36 59.944 171.008 60.696 171.472C61.464 171.92 62.336 172.144 63.312 172.144C64.224 172.144 65.024 171.944 65.712 171.544C66.416 171.128 66.96 170.52 67.344 169.72H71.208C70.648 171.432 69.664 172.768 68.256 173.728C66.864 174.672 65.224 175.144 63.336 175.144C61.736 175.144 60.288 174.784 58.992 174.064C57.712 173.328 56.696 172.312 55.944 171.016C55.208 169.72 54.84 168.248 54.84 166.6ZM83.5339 175.168C81.9659 175.168 80.5259 174.8 79.2139 174.064C77.9019 173.328 76.8619 172.312 76.0939 171.016C75.3259 169.704 74.9419 168.224 74.9419 166.576C74.9419 164.944 75.3259 163.48 76.0939 162.184C76.8619 160.872 77.9019 159.848 79.2139 159.112C80.5259 158.376 81.9659 158.008 83.5339 158.008C85.1179 158.008 86.5579 158.376 87.8539 159.112C89.1659 159.848 90.1979 160.872 90.9499 162.184C91.7179 163.48 92.1019 164.944 92.1019 166.576C92.1019 168.224 91.7179 169.704 90.9499 171.016C90.1979 172.312 89.1659 173.328 87.8539 174.064C86.5419 174.8 85.1019 175.168 83.5339 175.168ZM83.5339 172.168C84.5419 172.168 85.4299 171.944 86.1979 171.496C86.9659 171.032 87.5659 170.376 87.9979 169.528C88.4299 168.68 88.6459 167.696 88.6459 166.576C88.6459 165.456 88.4299 164.48 87.9979 163.648C87.5659 162.8 86.9659 162.152 86.1979 161.704C85.4299 161.256 84.5419 161.032 83.5339 161.032C82.5259 161.032 81.6299 161.256 80.8459 161.704C80.0779 162.152 79.4779 162.8 79.0459 163.648C78.6139 164.48 78.3979 165.456 78.3979 166.576C78.3979 167.696 78.6139 168.68 79.0459 169.528C79.4779 170.376 80.0779 171.032 80.8459 171.496C81.6299 171.944 82.5259 172.168 83.5339 172.168ZM110.61 175H107.25L99.6416 163.504V175H96.2816V158.224H99.6416L107.25 169.744V158.224H110.61V175ZM121.394 175.168C120.226 175.168 119.17 174.968 118.226 174.568C117.298 174.168 116.562 173.592 116.018 172.84C115.474 172.088 115.194 171.2 115.178 170.176H118.778C118.826 170.864 119.066 171.408 119.498 171.808C119.946 172.208 120.554 172.408 121.322 172.408C122.106 172.408 122.722 172.224 123.17 171.856C123.618 171.472 123.842 170.976 123.842 170.368C123.842 169.872 123.69 169.464 123.386 169.144C123.082 168.824 122.698 168.576 122.234 168.4C121.786 168.208 121.162 168 120.362 167.776C119.274 167.456 118.386 167.144 117.698 166.84C117.026 166.52 116.442 166.048 115.946 165.424C115.466 164.784 115.226 163.936 115.226 162.88C115.226 161.888 115.474 161.024 115.97 160.288C116.466 159.552 117.162 158.992 118.058 158.608C118.954 158.208 119.978 158.008 121.13 158.008C122.858 158.008 124.258 158.432 125.33 159.28C126.418 160.112 127.018 161.28 127.13 162.784H123.434C123.402 162.208 123.154 161.736 122.69 161.368C122.242 160.984 121.642 160.792 120.89 160.792C120.234 160.792 119.706 160.96 119.306 161.296C118.922 161.632 118.73 162.12 118.73 162.76C118.73 163.208 118.874 163.584 119.162 163.888C119.466 164.176 119.834 164.416 120.266 164.608C120.714 164.784 121.338 164.992 122.138 165.232C123.226 165.552 124.114 165.872 124.802 166.192C125.49 166.512 126.082 166.992 126.578 167.632C127.074 168.272 127.322 169.112 127.322 170.152C127.322 171.048 127.09 171.88 126.626 172.648C126.162 173.416 125.482 174.032 124.586 174.496C123.69 174.944 122.626 175.168 121.394 175.168ZM135.227 158.248V168.616C135.227 169.752 135.523 170.624 136.115 171.232C136.707 171.824 137.539 172.12 138.611 172.12C139.699 172.12 140.539 171.824 141.131 171.232C141.723 170.624 142.019 169.752 142.019 168.616V158.248H145.403V168.592C145.403 170.016 145.091 171.224 144.467 172.216C143.859 173.192 143.035 173.928 141.995 174.424C140.971 174.92 139.827 175.168 138.563 175.168C137.315 175.168 136.179 174.92 135.155 174.424C134.147 173.928 133.347 173.192 132.755 172.216C132.163 171.224 131.867 170.016 131.867 168.592V158.248H135.227ZM153.689 172.336H159.209V175H150.329V158.248H153.689V172.336ZM173.297 171.808H166.625L165.521 175H161.993L168.017 158.224H171.929L177.953 175H174.401L173.297 171.808ZM172.385 169.12L169.961 162.112L167.537 169.12H172.385ZM190.525 175L186.829 168.472H185.245V175H181.885V158.248H188.173C189.469 158.248 190.573 158.48 191.485 158.944C192.397 159.392 193.077 160.008 193.525 160.792C193.989 161.56 194.221 162.424 194.221 163.384C194.221 164.488 193.901 165.488 193.261 166.384C192.621 167.264 191.669 167.872 190.405 168.208L194.413 175H190.525ZM185.245 165.952H188.053C188.965 165.952 189.645 165.736 190.093 165.304C190.541 164.856 190.765 164.24 190.765 163.456C190.765 162.688 190.541 162.096 190.093 161.68C189.645 161.248 188.965 161.032 188.053 161.032H185.245V165.952Z" fill="#3D3D45"/>
<defs>
<clipPath id="clip0_525_40151">
<rect width="250" height="133" fill="white"/>
</clipPath>
</defs>
</svg>
